<mxfile host="app.diagrams.net" agent="Mozilla/5.0 (Windows NT 10.0; Win64; x64) AppleWebKit/537.36 (KHTML, like Gecko) Chrome/140.0.0.0 Safari/537.36 Edg/140.0.0.0" version="28.2.5" pages="2">
  <diagram name="หน้า-1" id="ExVzPjpYlb366rDfEKKf">
    <mxGraphModel dx="978" dy="542" grid="1" gridSize="10" guides="1" tooltips="1" connect="1" arrows="1" fold="1" page="1" pageScale="1" pageWidth="1654" pageHeight="1169" math="0" shadow="0">
      <root>
        <mxCell id="0" />
        <mxCell id="1" parent="0" />
        <mxCell id="1UDM3bes4xV-jZHGHGpp-51" value="Structure" style="swimlane;whiteSpace=wrap;html=1;" parent="1" vertex="1">
          <mxGeometry x="40" y="40" width="640" height="760" as="geometry" />
        </mxCell>
        <mxCell id="1UDM3bes4xV-jZHGHGpp-5" value="" style="edgeStyle=orthogonalEdgeStyle;rounded=0;orthogonalLoop=1;jettySize=auto;html=1;" parent="1UDM3bes4xV-jZHGHGpp-51" source="1UDM3bes4xV-jZHGHGpp-1" target="1UDM3bes4xV-jZHGHGpp-2" edge="1">
          <mxGeometry relative="1" as="geometry">
            <mxPoint x="590" y="140" as="targetPoint" />
            <Array as="points">
              <mxPoint x="320" y="200" />
              <mxPoint x="520" y="200" />
            </Array>
          </mxGeometry>
        </mxCell>
        <mxCell id="1UDM3bes4xV-jZHGHGpp-7" value="" style="edgeStyle=orthogonalEdgeStyle;rounded=0;orthogonalLoop=1;jettySize=auto;html=1;" parent="1UDM3bes4xV-jZHGHGpp-51" source="1UDM3bes4xV-jZHGHGpp-1" target="1UDM3bes4xV-jZHGHGpp-6" edge="1">
          <mxGeometry relative="1" as="geometry" />
        </mxCell>
        <mxCell id="1UDM3bes4xV-jZHGHGpp-9" value="" style="edgeStyle=orthogonalEdgeStyle;rounded=0;orthogonalLoop=1;jettySize=auto;html=1;" parent="1UDM3bes4xV-jZHGHGpp-51" source="1UDM3bes4xV-jZHGHGpp-1" target="1UDM3bes4xV-jZHGHGpp-8" edge="1">
          <mxGeometry relative="1" as="geometry">
            <Array as="points">
              <mxPoint x="320" y="200" />
              <mxPoint x="120" y="200" />
            </Array>
          </mxGeometry>
        </mxCell>
        <mxCell id="1UDM3bes4xV-jZHGHGpp-1" value="Thesis Management" style="rounded=0;whiteSpace=wrap;html=1;" parent="1UDM3bes4xV-jZHGHGpp-51" vertex="1">
          <mxGeometry x="240" y="80" width="160" height="80" as="geometry" />
        </mxCell>
        <mxCell id="1UDM3bes4xV-jZHGHGpp-2" value="Teacher" style="whiteSpace=wrap;html=1;rounded=0;" parent="1UDM3bes4xV-jZHGHGpp-51" vertex="1">
          <mxGeometry x="440" y="240" width="160" height="80" as="geometry" />
        </mxCell>
        <mxCell id="1UDM3bes4xV-jZHGHGpp-6" value="Student" style="whiteSpace=wrap;html=1;rounded=0;" parent="1UDM3bes4xV-jZHGHGpp-51" vertex="1">
          <mxGeometry x="240" y="240" width="160" height="80" as="geometry" />
        </mxCell>
        <mxCell id="1UDM3bes4xV-jZHGHGpp-10" style="edgeStyle=orthogonalEdgeStyle;rounded=0;orthogonalLoop=1;jettySize=auto;html=1;exitX=0.123;exitY=1.008;exitDx=0;exitDy=0;endArrow=none;endFill=0;exitPerimeter=0;" parent="1UDM3bes4xV-jZHGHGpp-51" source="1UDM3bes4xV-jZHGHGpp-8" edge="1">
          <mxGeometry relative="1" as="geometry">
            <mxPoint x="60" y="540" as="targetPoint" />
            <Array as="points">
              <mxPoint x="60" y="440" />
              <mxPoint x="60" y="560" />
            </Array>
          </mxGeometry>
        </mxCell>
        <mxCell id="1UDM3bes4xV-jZHGHGpp-8" value="User" style="whiteSpace=wrap;html=1;rounded=0;" parent="1UDM3bes4xV-jZHGHGpp-51" vertex="1">
          <mxGeometry x="40" y="240" width="160" height="80" as="geometry" />
        </mxCell>
        <mxCell id="1UDM3bes4xV-jZHGHGpp-11" value="" style="endArrow=none;html=1;rounded=0;" parent="1UDM3bes4xV-jZHGHGpp-51" target="1UDM3bes4xV-jZHGHGpp-12" edge="1">
          <mxGeometry width="50" height="50" relative="1" as="geometry">
            <mxPoint x="60" y="360" as="sourcePoint" />
            <mxPoint x="90" y="360" as="targetPoint" />
          </mxGeometry>
        </mxCell>
        <mxCell id="1UDM3bes4xV-jZHGHGpp-12" value="Browse" style="whiteSpace=wrap;html=1;rounded=0;" parent="1UDM3bes4xV-jZHGHGpp-51" vertex="1">
          <mxGeometry x="80" y="340" width="120" height="40" as="geometry" />
        </mxCell>
        <mxCell id="1UDM3bes4xV-jZHGHGpp-13" value="Login / Register" style="whiteSpace=wrap;html=1;rounded=0;" parent="1UDM3bes4xV-jZHGHGpp-51" vertex="1">
          <mxGeometry x="80" y="400" width="120" height="40" as="geometry" />
        </mxCell>
        <mxCell id="1UDM3bes4xV-jZHGHGpp-14" value="Download" style="whiteSpace=wrap;html=1;rounded=0;" parent="1UDM3bes4xV-jZHGHGpp-51" vertex="1">
          <mxGeometry x="80" y="460" width="120" height="40" as="geometry" />
        </mxCell>
        <mxCell id="1UDM3bes4xV-jZHGHGpp-15" value="Comment" style="whiteSpace=wrap;html=1;rounded=0;" parent="1UDM3bes4xV-jZHGHGpp-51" vertex="1">
          <mxGeometry x="80" y="520" width="120" height="40" as="geometry" />
        </mxCell>
        <mxCell id="1UDM3bes4xV-jZHGHGpp-16" value="" style="endArrow=none;html=1;rounded=0;" parent="1UDM3bes4xV-jZHGHGpp-51" target="1UDM3bes4xV-jZHGHGpp-13" edge="1">
          <mxGeometry width="50" height="50" relative="1" as="geometry">
            <mxPoint x="60" y="420" as="sourcePoint" />
            <mxPoint x="90" y="370" as="targetPoint" />
          </mxGeometry>
        </mxCell>
        <mxCell id="1UDM3bes4xV-jZHGHGpp-17" value="" style="endArrow=none;html=1;rounded=0;" parent="1UDM3bes4xV-jZHGHGpp-51" target="1UDM3bes4xV-jZHGHGpp-14" edge="1">
          <mxGeometry width="50" height="50" relative="1" as="geometry">
            <mxPoint x="60" y="480" as="sourcePoint" />
            <mxPoint x="90" y="430" as="targetPoint" />
          </mxGeometry>
        </mxCell>
        <mxCell id="1UDM3bes4xV-jZHGHGpp-18" value="" style="endArrow=none;html=1;rounded=0;" parent="1UDM3bes4xV-jZHGHGpp-51" target="1UDM3bes4xV-jZHGHGpp-15" edge="1">
          <mxGeometry width="50" height="50" relative="1" as="geometry">
            <mxPoint x="60" y="540" as="sourcePoint" />
            <mxPoint x="90" y="490" as="targetPoint" />
          </mxGeometry>
        </mxCell>
        <mxCell id="1UDM3bes4xV-jZHGHGpp-19" value="" style="endArrow=none;html=1;rounded=0;" parent="1UDM3bes4xV-jZHGHGpp-51" target="1UDM3bes4xV-jZHGHGpp-20" edge="1">
          <mxGeometry width="50" height="50" relative="1" as="geometry">
            <mxPoint x="260" y="359" as="sourcePoint" />
            <mxPoint x="290" y="359" as="targetPoint" />
          </mxGeometry>
        </mxCell>
        <mxCell id="1UDM3bes4xV-jZHGHGpp-20" value="Browse" style="whiteSpace=wrap;html=1;rounded=0;" parent="1UDM3bes4xV-jZHGHGpp-51" vertex="1">
          <mxGeometry x="280" y="339" width="120" height="40" as="geometry" />
        </mxCell>
        <mxCell id="1UDM3bes4xV-jZHGHGpp-21" value="Login / Register" style="whiteSpace=wrap;html=1;rounded=0;" parent="1UDM3bes4xV-jZHGHGpp-51" vertex="1">
          <mxGeometry x="280" y="399" width="120" height="40" as="geometry" />
        </mxCell>
        <mxCell id="1UDM3bes4xV-jZHGHGpp-22" value="Download" style="whiteSpace=wrap;html=1;rounded=0;" parent="1UDM3bes4xV-jZHGHGpp-51" vertex="1">
          <mxGeometry x="280" y="459" width="120" height="40" as="geometry" />
        </mxCell>
        <mxCell id="1UDM3bes4xV-jZHGHGpp-23" value="Comment" style="whiteSpace=wrap;html=1;rounded=0;" parent="1UDM3bes4xV-jZHGHGpp-51" vertex="1">
          <mxGeometry x="280" y="519" width="120" height="40" as="geometry" />
        </mxCell>
        <mxCell id="1UDM3bes4xV-jZHGHGpp-24" value="" style="endArrow=none;html=1;rounded=0;" parent="1UDM3bes4xV-jZHGHGpp-51" target="1UDM3bes4xV-jZHGHGpp-21" edge="1">
          <mxGeometry width="50" height="50" relative="1" as="geometry">
            <mxPoint x="260" y="419" as="sourcePoint" />
            <mxPoint x="290" y="369" as="targetPoint" />
          </mxGeometry>
        </mxCell>
        <mxCell id="1UDM3bes4xV-jZHGHGpp-25" value="" style="endArrow=none;html=1;rounded=0;" parent="1UDM3bes4xV-jZHGHGpp-51" target="1UDM3bes4xV-jZHGHGpp-22" edge="1">
          <mxGeometry width="50" height="50" relative="1" as="geometry">
            <mxPoint x="260" y="479" as="sourcePoint" />
            <mxPoint x="290" y="429" as="targetPoint" />
          </mxGeometry>
        </mxCell>
        <mxCell id="1UDM3bes4xV-jZHGHGpp-26" value="" style="endArrow=none;html=1;rounded=0;" parent="1UDM3bes4xV-jZHGHGpp-51" target="1UDM3bes4xV-jZHGHGpp-23" edge="1">
          <mxGeometry width="50" height="50" relative="1" as="geometry">
            <mxPoint x="260" y="539" as="sourcePoint" />
            <mxPoint x="290" y="489" as="targetPoint" />
          </mxGeometry>
        </mxCell>
        <mxCell id="1UDM3bes4xV-jZHGHGpp-27" style="edgeStyle=orthogonalEdgeStyle;rounded=0;orthogonalLoop=1;jettySize=auto;html=1;exitX=0.123;exitY=1.008;exitDx=0;exitDy=0;endArrow=none;endFill=0;exitPerimeter=0;" parent="1UDM3bes4xV-jZHGHGpp-51" edge="1">
          <mxGeometry relative="1" as="geometry">
            <mxPoint x="260" y="660" as="targetPoint" />
            <mxPoint x="260" y="320" as="sourcePoint" />
            <Array as="points">
              <mxPoint x="260" y="439" />
              <mxPoint x="260" y="559" />
            </Array>
          </mxGeometry>
        </mxCell>
        <mxCell id="1UDM3bes4xV-jZHGHGpp-28" value="" style="endArrow=none;html=1;rounded=0;" parent="1UDM3bes4xV-jZHGHGpp-51" target="1UDM3bes4xV-jZHGHGpp-29" edge="1">
          <mxGeometry width="50" height="50" relative="1" as="geometry">
            <mxPoint x="460" y="359" as="sourcePoint" />
            <mxPoint x="490" y="359" as="targetPoint" />
          </mxGeometry>
        </mxCell>
        <mxCell id="1UDM3bes4xV-jZHGHGpp-29" value="Browse" style="whiteSpace=wrap;html=1;rounded=0;" parent="1UDM3bes4xV-jZHGHGpp-51" vertex="1">
          <mxGeometry x="480" y="339" width="120" height="40" as="geometry" />
        </mxCell>
        <mxCell id="1UDM3bes4xV-jZHGHGpp-30" value="Login" style="whiteSpace=wrap;html=1;rounded=0;" parent="1UDM3bes4xV-jZHGHGpp-51" vertex="1">
          <mxGeometry x="480" y="399" width="120" height="40" as="geometry" />
        </mxCell>
        <mxCell id="1UDM3bes4xV-jZHGHGpp-31" value="Download" style="whiteSpace=wrap;html=1;rounded=0;" parent="1UDM3bes4xV-jZHGHGpp-51" vertex="1">
          <mxGeometry x="480" y="459" width="120" height="40" as="geometry" />
        </mxCell>
        <mxCell id="1UDM3bes4xV-jZHGHGpp-32" value="Comment" style="whiteSpace=wrap;html=1;rounded=0;" parent="1UDM3bes4xV-jZHGHGpp-51" vertex="1">
          <mxGeometry x="480" y="519" width="120" height="40" as="geometry" />
        </mxCell>
        <mxCell id="1UDM3bes4xV-jZHGHGpp-33" value="" style="endArrow=none;html=1;rounded=0;" parent="1UDM3bes4xV-jZHGHGpp-51" target="1UDM3bes4xV-jZHGHGpp-30" edge="1">
          <mxGeometry width="50" height="50" relative="1" as="geometry">
            <mxPoint x="460" y="419" as="sourcePoint" />
            <mxPoint x="490" y="369" as="targetPoint" />
          </mxGeometry>
        </mxCell>
        <mxCell id="1UDM3bes4xV-jZHGHGpp-34" value="" style="endArrow=none;html=1;rounded=0;" parent="1UDM3bes4xV-jZHGHGpp-51" target="1UDM3bes4xV-jZHGHGpp-31" edge="1">
          <mxGeometry width="50" height="50" relative="1" as="geometry">
            <mxPoint x="460" y="479" as="sourcePoint" />
            <mxPoint x="490" y="429" as="targetPoint" />
          </mxGeometry>
        </mxCell>
        <mxCell id="1UDM3bes4xV-jZHGHGpp-35" value="" style="endArrow=none;html=1;rounded=0;" parent="1UDM3bes4xV-jZHGHGpp-51" target="1UDM3bes4xV-jZHGHGpp-32" edge="1">
          <mxGeometry width="50" height="50" relative="1" as="geometry">
            <mxPoint x="460" y="539" as="sourcePoint" />
            <mxPoint x="490" y="489" as="targetPoint" />
          </mxGeometry>
        </mxCell>
        <mxCell id="1UDM3bes4xV-jZHGHGpp-36" style="edgeStyle=orthogonalEdgeStyle;rounded=0;orthogonalLoop=1;jettySize=auto;html=1;exitX=0.123;exitY=1.008;exitDx=0;exitDy=0;endArrow=none;endFill=0;exitPerimeter=0;" parent="1UDM3bes4xV-jZHGHGpp-51" edge="1">
          <mxGeometry relative="1" as="geometry">
            <mxPoint x="460" y="660" as="targetPoint" />
            <mxPoint x="460" y="320" as="sourcePoint" />
            <Array as="points">
              <mxPoint x="460" y="439" />
              <mxPoint x="460" y="559" />
            </Array>
          </mxGeometry>
        </mxCell>
        <mxCell id="1UDM3bes4xV-jZHGHGpp-37" value="Manage thesis&lt;div&gt;with mentor&lt;/div&gt;" style="whiteSpace=wrap;html=1;rounded=0;" parent="1UDM3bes4xV-jZHGHGpp-51" vertex="1">
          <mxGeometry x="280" y="580" width="120" height="40" as="geometry" />
        </mxCell>
        <mxCell id="1UDM3bes4xV-jZHGHGpp-38" value="Notification" style="whiteSpace=wrap;html=1;rounded=0;" parent="1UDM3bes4xV-jZHGHGpp-51" vertex="1">
          <mxGeometry x="280" y="640" width="120" height="40" as="geometry" />
        </mxCell>
        <mxCell id="1UDM3bes4xV-jZHGHGpp-41" value="" style="endArrow=none;html=1;rounded=0;" parent="1UDM3bes4xV-jZHGHGpp-51" target="1UDM3bes4xV-jZHGHGpp-37" edge="1">
          <mxGeometry width="50" height="50" relative="1" as="geometry">
            <mxPoint x="260" y="600" as="sourcePoint" />
            <mxPoint x="290" y="600" as="targetPoint" />
          </mxGeometry>
        </mxCell>
        <mxCell id="1UDM3bes4xV-jZHGHGpp-42" value="" style="endArrow=none;html=1;rounded=0;" parent="1UDM3bes4xV-jZHGHGpp-51" target="1UDM3bes4xV-jZHGHGpp-38" edge="1">
          <mxGeometry width="50" height="50" relative="1" as="geometry">
            <mxPoint x="260" y="660" as="sourcePoint" />
            <mxPoint x="290" y="610" as="targetPoint" />
          </mxGeometry>
        </mxCell>
        <mxCell id="1UDM3bes4xV-jZHGHGpp-45" value="Mentor" style="whiteSpace=wrap;html=1;rounded=0;" parent="1UDM3bes4xV-jZHGHGpp-51" vertex="1">
          <mxGeometry x="480" y="580" width="120" height="40" as="geometry" />
        </mxCell>
        <mxCell id="1UDM3bes4xV-jZHGHGpp-46" value="Notification" style="whiteSpace=wrap;html=1;rounded=0;" parent="1UDM3bes4xV-jZHGHGpp-51" vertex="1">
          <mxGeometry x="480" y="640" width="120" height="40" as="geometry" />
        </mxCell>
        <mxCell id="1UDM3bes4xV-jZHGHGpp-48" value="" style="endArrow=none;html=1;rounded=0;" parent="1UDM3bes4xV-jZHGHGpp-51" target="1UDM3bes4xV-jZHGHGpp-45" edge="1">
          <mxGeometry width="50" height="50" relative="1" as="geometry">
            <mxPoint x="460" y="600" as="sourcePoint" />
            <mxPoint x="490" y="600" as="targetPoint" />
          </mxGeometry>
        </mxCell>
        <mxCell id="1UDM3bes4xV-jZHGHGpp-49" value="" style="endArrow=none;html=1;rounded=0;" parent="1UDM3bes4xV-jZHGHGpp-51" target="1UDM3bes4xV-jZHGHGpp-46" edge="1">
          <mxGeometry width="50" height="50" relative="1" as="geometry">
            <mxPoint x="460" y="660" as="sourcePoint" />
            <mxPoint x="490" y="610" as="targetPoint" />
          </mxGeometry>
        </mxCell>
        <mxCell id="pYQrL31N_HzaD92K2Hr6-1" value="Notification" style="whiteSpace=wrap;html=1;rounded=0;" vertex="1" parent="1">
          <mxGeometry x="1160" y="240" width="120" height="40" as="geometry" />
        </mxCell>
        <mxCell id="pYQrL31N_HzaD92K2Hr6-12" style="edgeStyle=orthogonalEdgeStyle;rounded=0;orthogonalLoop=1;jettySize=auto;html=1;" edge="1" parent="1" source="pYQrL31N_HzaD92K2Hr6-2" target="pYQrL31N_HzaD92K2Hr6-4">
          <mxGeometry relative="1" as="geometry" />
        </mxCell>
        <mxCell id="pYQrL31N_HzaD92K2Hr6-13" style="edgeStyle=orthogonalEdgeStyle;rounded=0;orthogonalLoop=1;jettySize=auto;html=1;" edge="1" parent="1" source="pYQrL31N_HzaD92K2Hr6-2" target="pYQrL31N_HzaD92K2Hr6-5">
          <mxGeometry relative="1" as="geometry" />
        </mxCell>
        <mxCell id="pYQrL31N_HzaD92K2Hr6-2" value="Browse" style="whiteSpace=wrap;html=1;rounded=0;" vertex="1" parent="1">
          <mxGeometry x="740" y="120" width="120" height="40" as="geometry" />
        </mxCell>
        <mxCell id="pYQrL31N_HzaD92K2Hr6-10" style="edgeStyle=orthogonalEdgeStyle;rounded=0;orthogonalLoop=1;jettySize=auto;html=1;" edge="1" parent="1" source="pYQrL31N_HzaD92K2Hr6-3">
          <mxGeometry relative="1" as="geometry">
            <mxPoint x="980" y="200" as="targetPoint" />
          </mxGeometry>
        </mxCell>
        <mxCell id="pYQrL31N_HzaD92K2Hr6-3" value="Login / Register" style="whiteSpace=wrap;html=1;rounded=0;" vertex="1" parent="1">
          <mxGeometry x="920" y="120" width="120" height="40" as="geometry" />
        </mxCell>
        <mxCell id="pYQrL31N_HzaD92K2Hr6-4" value="Download" style="whiteSpace=wrap;html=1;rounded=0;" vertex="1" parent="1">
          <mxGeometry x="700" y="200" width="80" height="40" as="geometry" />
        </mxCell>
        <mxCell id="pYQrL31N_HzaD92K2Hr6-5" value="Comment" style="whiteSpace=wrap;html=1;rounded=0;" vertex="1" parent="1">
          <mxGeometry x="820" y="200" width="80" height="40" as="geometry" />
        </mxCell>
        <mxCell id="pYQrL31N_HzaD92K2Hr6-6" value="Manage thesis&lt;div&gt;with mentor&lt;/div&gt;" style="whiteSpace=wrap;html=1;rounded=0;" vertex="1" parent="1">
          <mxGeometry x="1080" y="120" width="120" height="40" as="geometry" />
        </mxCell>
        <mxCell id="pYQrL31N_HzaD92K2Hr6-7" value="Mentor" style="whiteSpace=wrap;html=1;rounded=0;" vertex="1" parent="1">
          <mxGeometry x="1240" y="120" width="120" height="40" as="geometry" />
        </mxCell>
        <mxCell id="pYQrL31N_HzaD92K2Hr6-11" value="1. Login / Register&lt;div&gt;2. Write Database&lt;/div&gt;&lt;div&gt;3. Hash (Security)&lt;/div&gt;" style="whiteSpace=wrap;html=1;rounded=0;" vertex="1" parent="1">
          <mxGeometry x="920" y="200" width="120" height="120" as="geometry" />
        </mxCell>
        <mxCell id="pYQrL31N_HzaD92K2Hr6-17" style="edgeStyle=orthogonalEdgeStyle;rounded=0;orthogonalLoop=1;jettySize=auto;html=1;" edge="1" parent="1" source="pYQrL31N_HzaD92K2Hr6-14" target="pYQrL31N_HzaD92K2Hr6-15">
          <mxGeometry relative="1" as="geometry" />
        </mxCell>
        <mxCell id="pYQrL31N_HzaD92K2Hr6-18" style="edgeStyle=orthogonalEdgeStyle;rounded=0;orthogonalLoop=1;jettySize=auto;html=1;" edge="1" parent="1" source="pYQrL31N_HzaD92K2Hr6-14" target="pYQrL31N_HzaD92K2Hr6-16">
          <mxGeometry relative="1" as="geometry" />
        </mxCell>
        <mxCell id="pYQrL31N_HzaD92K2Hr6-14" value="1. Database" style="whiteSpace=wrap;html=1;rounded=0;" vertex="1" parent="1">
          <mxGeometry x="720" y="360" width="120" height="40" as="geometry" />
        </mxCell>
        <mxCell id="pYQrL31N_HzaD92K2Hr6-15" value="2.1 Browse (Pon)" style="whiteSpace=wrap;html=1;rounded=0;" vertex="1" parent="1">
          <mxGeometry x="720" y="440" width="120" height="40" as="geometry" />
        </mxCell>
        <mxCell id="pYQrL31N_HzaD92K2Hr6-16" value="2.2 Login (Maet)" style="whiteSpace=wrap;html=1;rounded=0;" vertex="1" parent="1">
          <mxGeometry x="880" y="440" width="120" height="40" as="geometry" />
        </mxCell>
      </root>
    </mxGraphModel>
  </diagram>
  <diagram id="fYO8SioJMAZk-d7965WW" name="หน้า-2">
    <mxGraphModel dx="567" dy="314" grid="1" gridSize="10" guides="1" tooltips="1" connect="1" arrows="1" fold="1" page="1" pageScale="1" pageWidth="1654" pageHeight="1169" math="0" shadow="0">
      <root>
        <mxCell id="0" />
        <mxCell id="1" parent="0" />
        <mxCell id="ftOgPJBjAzpeFKPUhQ67-15" style="rounded=0;orthogonalLoop=1;jettySize=auto;html=1;fillColor=#f5f5f5;gradientColor=#b3b3b3;strokeColor=#666666;" parent="1" source="bvid3jWtmIu6YITqg-Pj-4" target="r5JoxmCzzD9Fh22vjevH-3" edge="1">
          <mxGeometry relative="1" as="geometry" />
        </mxCell>
        <mxCell id="ftOgPJBjAzpeFKPUhQ67-16" style="rounded=0;orthogonalLoop=1;jettySize=auto;html=1;fillColor=#f5f5f5;gradientColor=#b3b3b3;strokeColor=#666666;" parent="1" source="bvid3jWtmIu6YITqg-Pj-4" target="r5JoxmCzzD9Fh22vjevH-2" edge="1">
          <mxGeometry relative="1" as="geometry" />
        </mxCell>
        <mxCell id="ftOgPJBjAzpeFKPUhQ67-17" style="rounded=0;orthogonalLoop=1;jettySize=auto;html=1;fillColor=#f5f5f5;gradientColor=#b3b3b3;strokeColor=#666666;" parent="1" source="bvid3jWtmIu6YITqg-Pj-4" target="r5JoxmCzzD9Fh22vjevH-1" edge="1">
          <mxGeometry relative="1" as="geometry" />
        </mxCell>
        <mxCell id="3_f_WLj-9X0hdXejMtb2-13" style="rounded=0;orthogonalLoop=1;jettySize=auto;html=1;fillColor=#dae8fc;strokeColor=#6c8ebf;gradientColor=#7ea6e0;" parent="1" source="bvid3jWtmIu6YITqg-Pj-6" target="bvid3jWtmIu6YITqg-Pj-4" edge="1">
          <mxGeometry relative="1" as="geometry" />
        </mxCell>
        <mxCell id="ftOgPJBjAzpeFKPUhQ67-4" style="rounded=0;orthogonalLoop=1;jettySize=auto;html=1;fillColor=#f8cecc;strokeColor=#b85450;gradientColor=#ea6b66;" parent="1" source="bvid3jWtmIu6YITqg-Pj-5" target="5s1LviRAomPde2F31yO4-2" edge="1">
          <mxGeometry relative="1" as="geometry" />
        </mxCell>
        <mxCell id="ftOgPJBjAzpeFKPUhQ67-12" style="rounded=0;orthogonalLoop=1;jettySize=auto;html=1;fillColor=#f8cecc;strokeColor=#b85450;gradientColor=#ea6b66;" parent="1" source="bvid3jWtmIu6YITqg-Pj-5" target="r5JoxmCzzD9Fh22vjevH-1" edge="1">
          <mxGeometry relative="1" as="geometry" />
        </mxCell>
        <mxCell id="ftOgPJBjAzpeFKPUhQ67-13" style="rounded=0;orthogonalLoop=1;jettySize=auto;html=1;fillColor=#f8cecc;strokeColor=#b85450;gradientColor=#ea6b66;" parent="1" source="bvid3jWtmIu6YITqg-Pj-5" target="r5JoxmCzzD9Fh22vjevH-2" edge="1">
          <mxGeometry relative="1" as="geometry" />
        </mxCell>
        <mxCell id="ftOgPJBjAzpeFKPUhQ67-14" style="rounded=0;orthogonalLoop=1;jettySize=auto;html=1;fillColor=#f8cecc;strokeColor=#b85450;gradientColor=#ea6b66;" parent="1" source="bvid3jWtmIu6YITqg-Pj-5" target="r5JoxmCzzD9Fh22vjevH-3" edge="1">
          <mxGeometry relative="1" as="geometry" />
        </mxCell>
        <mxCell id="3_f_WLj-9X0hdXejMtb2-14" style="edgeStyle=orthogonalEdgeStyle;rounded=0;orthogonalLoop=1;jettySize=auto;html=1;fillColor=#f8cecc;strokeColor=#b85450;gradientColor=#ea6b66;" parent="1" source="bvid3jWtmIu6YITqg-Pj-5" target="bvid3jWtmIu6YITqg-Pj-4" edge="1">
          <mxGeometry relative="1" as="geometry" />
        </mxCell>
        <mxCell id="bvid3jWtmIu6YITqg-Pj-5" value="&lt;font&gt;Student&lt;/font&gt;" style="shape=umlActor;verticalLabelPosition=bottom;verticalAlign=top;html=1;outlineConnect=0;fillColor=#f8cecc;strokeColor=#b85450;gradientColor=#ea6b66;" parent="1" vertex="1">
          <mxGeometry x="400" y="840" width="40" height="80" as="geometry" />
        </mxCell>
        <mxCell id="ftOgPJBjAzpeFKPUhQ67-5" style="rounded=0;orthogonalLoop=1;jettySize=auto;html=1;fillColor=#dae8fc;strokeColor=#6c8ebf;gradientColor=#7ea6e0;" parent="1" source="bvid3jWtmIu6YITqg-Pj-6" target="5s1LviRAomPde2F31yO4-1" edge="1">
          <mxGeometry relative="1" as="geometry" />
        </mxCell>
        <mxCell id="ftOgPJBjAzpeFKPUhQ67-8" style="rounded=0;orthogonalLoop=1;jettySize=auto;html=1;fillColor=#dae8fc;strokeColor=#6c8ebf;gradientColor=#7ea6e0;" parent="1" source="bvid3jWtmIu6YITqg-Pj-6" target="r5JoxmCzzD9Fh22vjevH-1" edge="1">
          <mxGeometry relative="1" as="geometry" />
        </mxCell>
        <mxCell id="ftOgPJBjAzpeFKPUhQ67-9" style="rounded=0;orthogonalLoop=1;jettySize=auto;html=1;fillColor=#dae8fc;strokeColor=#6c8ebf;gradientColor=#7ea6e0;" parent="1" source="bvid3jWtmIu6YITqg-Pj-6" target="r5JoxmCzzD9Fh22vjevH-3" edge="1">
          <mxGeometry relative="1" as="geometry" />
        </mxCell>
        <mxCell id="bvid3jWtmIu6YITqg-Pj-6" value="&lt;span style=&quot;background-color: light-dark(#ffffff, var(--ge-dark-color, #121212));&quot;&gt;&lt;font&gt;Teacher&lt;/font&gt;&lt;/span&gt;" style="shape=umlActor;verticalLabelPosition=bottom;verticalAlign=top;html=1;outlineConnect=0;fillColor=#dae8fc;strokeColor=#6c8ebf;gradientColor=#7ea6e0;" parent="1" vertex="1">
          <mxGeometry x="480" y="600" width="40" height="80" as="geometry" />
        </mxCell>
        <mxCell id="3_f_WLj-9X0hdXejMtb2-1" value="Thesis System" style="swimlane;whiteSpace=wrap;html=1;startSize=40;movable=1;resizable=1;rotatable=1;deletable=1;editable=1;locked=0;connectable=1;" parent="1" vertex="1">
          <mxGeometry x="600" y="240" width="600" height="720" as="geometry" />
        </mxCell>
        <mxCell id="3_f_WLj-9X0hdXejMtb2-27" value="" style="rounded=0;orthogonalLoop=1;jettySize=auto;html=1;fillColor=#008a00;strokeColor=#005700;" parent="3_f_WLj-9X0hdXejMtb2-1" source="3_f_WLj-9X0hdXejMtb2-26" target="r5JoxmCzzD9Fh22vjevH-3" edge="1">
          <mxGeometry relative="1" as="geometry" />
        </mxCell>
        <mxCell id="3_f_WLj-9X0hdXejMtb2-28" style="rounded=0;orthogonalLoop=1;jettySize=auto;html=1;fillColor=#008a00;strokeColor=#005700;" parent="3_f_WLj-9X0hdXejMtb2-1" source="3_f_WLj-9X0hdXejMtb2-25" target="r5JoxmCzzD9Fh22vjevH-3" edge="1">
          <mxGeometry relative="1" as="geometry" />
        </mxCell>
        <mxCell id="3_f_WLj-9X0hdXejMtb2-35" style="rounded=0;orthogonalLoop=1;jettySize=auto;html=1;fillColor=#008a00;strokeColor=#005700;dashed=1;" parent="3_f_WLj-9X0hdXejMtb2-1" source="r5JoxmCzzD9Fh22vjevH-4" target="r5JoxmCzzD9Fh22vjevH-3" edge="1">
          <mxGeometry relative="1" as="geometry" />
        </mxCell>
        <mxCell id="3_f_WLj-9X0hdXejMtb2-74" value="extent" style="edgeLabel;html=1;align=center;verticalAlign=middle;resizable=0;points=[];" parent="3_f_WLj-9X0hdXejMtb2-35" vertex="1" connectable="0">
          <mxGeometry x="0.0743" y="1" relative="1" as="geometry">
            <mxPoint x="5" y="-3" as="offset" />
          </mxGeometry>
        </mxCell>
        <mxCell id="3_f_WLj-9X0hdXejMtb2-37" style="rounded=0;orthogonalLoop=1;jettySize=auto;html=1;fillColor=#008a00;strokeColor=#005700;dashed=1;" parent="3_f_WLj-9X0hdXejMtb2-1" source="r5JoxmCzzD9Fh22vjevH-5" target="r5JoxmCzzD9Fh22vjevH-3" edge="1">
          <mxGeometry relative="1" as="geometry" />
        </mxCell>
        <mxCell id="3_f_WLj-9X0hdXejMtb2-73" value="extent" style="edgeLabel;html=1;align=center;verticalAlign=middle;resizable=0;points=[];" parent="3_f_WLj-9X0hdXejMtb2-37" vertex="1" connectable="0">
          <mxGeometry x="0.0287" y="1" relative="1" as="geometry">
            <mxPoint y="-2" as="offset" />
          </mxGeometry>
        </mxCell>
        <mxCell id="r5JoxmCzzD9Fh22vjevH-3" value="Browse" style="ellipse;whiteSpace=wrap;html=1;" parent="3_f_WLj-9X0hdXejMtb2-1" vertex="1">
          <mxGeometry x="160" y="200" width="120" height="80" as="geometry" />
        </mxCell>
        <mxCell id="r5JoxmCzzD9Fh22vjevH-4" value="Download" style="ellipse;whiteSpace=wrap;html=1;" parent="3_f_WLj-9X0hdXejMtb2-1" vertex="1">
          <mxGeometry x="240" y="80" width="120" height="80" as="geometry" />
        </mxCell>
        <mxCell id="3_f_WLj-9X0hdXejMtb2-2" style="edgeStyle=orthogonalEdgeStyle;rounded=0;orthogonalLoop=1;jettySize=auto;html=1;fillColor=#008a00;strokeColor=#005700;dashed=1;" parent="3_f_WLj-9X0hdXejMtb2-1" source="r5JoxmCzzD9Fh22vjevH-2" target="r5JoxmCzzD9Fh22vjevH-1" edge="1">
          <mxGeometry relative="1" as="geometry" />
        </mxCell>
        <mxCell id="3_f_WLj-9X0hdXejMtb2-32" value="extent" style="edgeLabel;html=1;align=center;verticalAlign=middle;resizable=0;points=[];" parent="3_f_WLj-9X0hdXejMtb2-2" vertex="1" connectable="0">
          <mxGeometry x="-0.1091" y="1" relative="1" as="geometry">
            <mxPoint as="offset" />
          </mxGeometry>
        </mxCell>
        <mxCell id="r5JoxmCzzD9Fh22vjevH-2" value="Register" style="ellipse;whiteSpace=wrap;html=1;" parent="3_f_WLj-9X0hdXejMtb2-1" vertex="1">
          <mxGeometry x="160" y="320" width="120" height="80" as="geometry" />
        </mxCell>
        <mxCell id="3_f_WLj-9X0hdXejMtb2-3" style="rounded=0;orthogonalLoop=1;jettySize=auto;html=1;fillColor=#008a00;strokeColor=#005700;dashed=1;" parent="3_f_WLj-9X0hdXejMtb2-1" source="r5JoxmCzzD9Fh22vjevH-5" target="r5JoxmCzzD9Fh22vjevH-1" edge="1">
          <mxGeometry relative="1" as="geometry" />
        </mxCell>
        <mxCell id="3_f_WLj-9X0hdXejMtb2-24" value="include" style="edgeLabel;html=1;align=center;verticalAlign=middle;resizable=0;points=[];" parent="3_f_WLj-9X0hdXejMtb2-3" vertex="1" connectable="0">
          <mxGeometry x="-0.06" y="-1" relative="1" as="geometry">
            <mxPoint x="-36" y="-120" as="offset" />
          </mxGeometry>
        </mxCell>
        <mxCell id="3_f_WLj-9X0hdXejMtb2-5" style="rounded=0;orthogonalLoop=1;jettySize=auto;html=1;fillColor=#008a00;strokeColor=#005700;dashed=1;" parent="3_f_WLj-9X0hdXejMtb2-1" source="5s1LviRAomPde2F31yO4-1" target="r5JoxmCzzD9Fh22vjevH-1" edge="1">
          <mxGeometry relative="1" as="geometry" />
        </mxCell>
        <mxCell id="3_f_WLj-9X0hdXejMtb2-19" value="include" style="edgeLabel;html=1;align=center;verticalAlign=middle;resizable=0;points=[];" parent="3_f_WLj-9X0hdXejMtb2-5" vertex="1" connectable="0">
          <mxGeometry x="0.3481" y="-1" relative="1" as="geometry">
            <mxPoint x="9" y="10" as="offset" />
          </mxGeometry>
        </mxCell>
        <mxCell id="3_f_WLj-9X0hdXejMtb2-6" style="rounded=0;orthogonalLoop=1;jettySize=auto;html=1;fillColor=#008a00;strokeColor=#005700;dashed=1;" parent="3_f_WLj-9X0hdXejMtb2-1" source="5s1LviRAomPde2F31yO4-2" target="r5JoxmCzzD9Fh22vjevH-1" edge="1">
          <mxGeometry relative="1" as="geometry" />
        </mxCell>
        <mxCell id="3_f_WLj-9X0hdXejMtb2-23" value="include" style="edgeLabel;html=1;align=center;verticalAlign=middle;resizable=0;points=[];" parent="3_f_WLj-9X0hdXejMtb2-6" vertex="1" connectable="0">
          <mxGeometry x="0.1205" y="1" relative="1" as="geometry">
            <mxPoint x="-3" y="4" as="offset" />
          </mxGeometry>
        </mxCell>
        <mxCell id="r5JoxmCzzD9Fh22vjevH-1" value="Login" style="ellipse;whiteSpace=wrap;html=1;" parent="3_f_WLj-9X0hdXejMtb2-1" vertex="1">
          <mxGeometry x="160" y="480" width="120" height="80" as="geometry" />
        </mxCell>
        <mxCell id="r5JoxmCzzD9Fh22vjevH-5" value="Comment" style="ellipse;whiteSpace=wrap;html=1;" parent="3_f_WLj-9X0hdXejMtb2-1" vertex="1">
          <mxGeometry x="40" y="80" width="120" height="80" as="geometry" />
        </mxCell>
        <mxCell id="5s1LviRAomPde2F31yO4-2" value="Manage thesis&lt;div&gt;with mentor&lt;/div&gt;" style="ellipse;whiteSpace=wrap;html=1;" parent="3_f_WLj-9X0hdXejMtb2-1" vertex="1">
          <mxGeometry x="40" y="600" width="120" height="80" as="geometry" />
        </mxCell>
        <mxCell id="5s1LviRAomPde2F31yO4-1" value="Mentor" style="ellipse;whiteSpace=wrap;html=1;" parent="3_f_WLj-9X0hdXejMtb2-1" vertex="1">
          <mxGeometry x="280" y="600" width="120" height="80" as="geometry" />
        </mxCell>
        <mxCell id="3_f_WLj-9X0hdXejMtb2-25" value="All Thesis" style="ellipse;whiteSpace=wrap;html=1;" parent="3_f_WLj-9X0hdXejMtb2-1" vertex="1">
          <mxGeometry x="440" y="80" width="120" height="80" as="geometry" />
        </mxCell>
        <mxCell id="3_f_WLj-9X0hdXejMtb2-26" value="Filter Thesis" style="ellipse;whiteSpace=wrap;html=1;" parent="3_f_WLj-9X0hdXejMtb2-1" vertex="1">
          <mxGeometry x="440" y="200" width="120" height="80" as="geometry" />
        </mxCell>
        <mxCell id="3_f_WLj-9X0hdXejMtb2-30" style="rounded=0;orthogonalLoop=1;jettySize=auto;html=1;fillColor=#008a00;strokeColor=#005700;dashed=1;" parent="3_f_WLj-9X0hdXejMtb2-1" source="3_f_WLj-9X0hdXejMtb2-29" target="r5JoxmCzzD9Fh22vjevH-2" edge="1">
          <mxGeometry relative="1" as="geometry" />
        </mxCell>
        <mxCell id="3_f_WLj-9X0hdXejMtb2-33" value="include" style="edgeLabel;html=1;align=center;verticalAlign=middle;resizable=0;points=[];" parent="3_f_WLj-9X0hdXejMtb2-30" vertex="1" connectable="0">
          <mxGeometry x="-0.0044" relative="1" as="geometry">
            <mxPoint as="offset" />
          </mxGeometry>
        </mxCell>
        <mxCell id="3_f_WLj-9X0hdXejMtb2-31" style="rounded=0;orthogonalLoop=1;jettySize=auto;html=1;fillColor=#008a00;strokeColor=#005700;dashed=1;" parent="3_f_WLj-9X0hdXejMtb2-1" source="3_f_WLj-9X0hdXejMtb2-29" target="r5JoxmCzzD9Fh22vjevH-1" edge="1">
          <mxGeometry relative="1" as="geometry" />
        </mxCell>
        <mxCell id="3_f_WLj-9X0hdXejMtb2-34" value="include" style="edgeLabel;html=1;align=center;verticalAlign=middle;resizable=0;points=[];" parent="3_f_WLj-9X0hdXejMtb2-31" vertex="1" connectable="0">
          <mxGeometry x="-0.0866" relative="1" as="geometry">
            <mxPoint as="offset" />
          </mxGeometry>
        </mxCell>
        <mxCell id="3_f_WLj-9X0hdXejMtb2-29" value="Check Exited Account" style="ellipse;whiteSpace=wrap;html=1;" parent="3_f_WLj-9X0hdXejMtb2-1" vertex="1">
          <mxGeometry x="440" y="400" width="120" height="80" as="geometry" />
        </mxCell>
        <mxCell id="3_f_WLj-9X0hdXejMtb2-81" style="edgeStyle=orthogonalEdgeStyle;rounded=0;orthogonalLoop=1;jettySize=auto;html=1;dashed=1;fillColor=#008a00;strokeColor=#005700;" parent="3_f_WLj-9X0hdXejMtb2-1" source="3_f_WLj-9X0hdXejMtb2-80" target="3_f_WLj-9X0hdXejMtb2-29" edge="1">
          <mxGeometry relative="1" as="geometry" />
        </mxCell>
        <mxCell id="3_f_WLj-9X0hdXejMtb2-82" value="extent" style="edgeLabel;html=1;align=center;verticalAlign=middle;resizable=0;points=[];" parent="3_f_WLj-9X0hdXejMtb2-81" vertex="1" connectable="0">
          <mxGeometry x="-0.1" y="1" relative="1" as="geometry">
            <mxPoint as="offset" />
          </mxGeometry>
        </mxCell>
        <mxCell id="3_f_WLj-9X0hdXejMtb2-80" value="Update Teacher account" style="ellipse;whiteSpace=wrap;html=1;" parent="3_f_WLj-9X0hdXejMtb2-1" vertex="1">
          <mxGeometry x="440" y="600" width="120" height="80" as="geometry" />
        </mxCell>
        <mxCell id="3_f_WLj-9X0hdXejMtb2-83" value="Use case diagram" style="swimlane;whiteSpace=wrap;html=1;" parent="1" vertex="1">
          <mxGeometry x="360" y="160" width="880" height="840" as="geometry" />
        </mxCell>
        <mxCell id="bvid3jWtmIu6YITqg-Pj-4" value="&lt;font&gt;User&lt;/font&gt;" style="shape=umlActor;verticalLabelPosition=bottom;verticalAlign=top;html=1;outlineConnect=0;fillColor=#f5f5f5;gradientColor=#b3b3b3;strokeColor=#666666;" parent="3_f_WLj-9X0hdXejMtb2-83" vertex="1">
          <mxGeometry x="40" y="160" width="40" height="80" as="geometry" />
        </mxCell>
      </root>
    </mxGraphModel>
  </diagram>
</mxfile>
